<svg xmlns="http://www.w3.org/2000/svg" width="338.645" height="317.496" viewBox="0 0 338.645 317.496">
  <path id="Union_9" data-name="Union 9" d="M282.762,435.639a46.567,46.567,0,0,1-19.092-9.332,48.505,48.505,0,0,1-13.358-15.441,72.371,72.371,0,0,1-6.615-17.784,128.507,128.507,0,0,1-2.84-18.681q-.723-9.424-2.006-18.024a69.588,69.588,0,0,0-4.224-15.916,29.484,29.484,0,0,0-9.409-12.365,44.935,44.935,0,0,0-11.013-6.486,90.684,90.684,0,0,0-9.648-3.3L219.6,299.056a65.468,65.468,0,0,1,9.568,4.393,75.2,75.2,0,0,1,10.527,6.871,38.971,38.971,0,0,1,11.429,13.841,72.519,72.519,0,0,1,5.607,16.609,146.4,146.4,0,0,1,2.59,18.006q.759,9.26,2.291,17.774a72.691,72.691,0,0,0,4.711,15.908,31.826,31.826,0,0,0,9.873,12.626,28.452,28.452,0,0,0,11.894,5.728,27.214,27.214,0,0,0,12.13-.246,33.591,33.591,0,0,0,11.4-5.346,47.1,47.1,0,0,0,9.811-9.476q15.789-20.21,11.469-47.464l21.054,16.446Q351.133,391.99,335.81,411.6a75.462,75.462,0,0,1-15.751,15.232,53.4,53.4,0,0,1-18.095,8.492,42.056,42.056,0,0,1-10.192,1.256A43.828,43.828,0,0,1,282.762,435.639Zm68.231-95.8a16.767,16.767,0,0,1-10.694-7.017,15.857,15.857,0,0,1-2.656-12.575,15.547,15.547,0,0,1,7.173-10.664,16.494,16.494,0,0,1,23.239,4.517,15.538,15.538,0,0,1,2.656,12.575,15.854,15.854,0,0,1-7.173,10.663,16.579,16.579,0,0,1-12.546,2.5ZM164.24,294.511a15.859,15.859,0,0,1-6.246-11.233,16.86,16.86,0,0,1,14.575-18.656,15.879,15.879,0,0,1,12.412,3.342,15.553,15.553,0,0,1,6.244,11.234,16.493,16.493,0,0,1-14.575,18.655,16.759,16.759,0,0,1-2.579.2,15.637,15.637,0,0,1-9.829-3.545ZM349.632,275.27a65.341,65.341,0,0,1-.429-10.527,75.022,75.022,0,0,1,1.347-12.492,38.94,38.94,0,0,1,7.143-16.466,72.465,72.465,0,0,1,12.252-12.533,146.344,146.344,0,0,1,14.872-10.483q7.907-4.879,14.8-10.108a72.819,72.819,0,0,0,12.03-11.421A31.81,31.81,0,0,0,418.41,176.7a28.472,28.472,0,0,0-.294-13.2,27.24,27.24,0,0,0-5.728-10.694,33.611,33.611,0,0,0-9.937-7.73,47.2,47.2,0,0,0-12.894-4.439q-25.175-4.892-47.5,11.329l5.1-26.218q25.564-9.872,50-5.122a75.489,75.489,0,0,1,20.719,7.122,53.447,53.447,0,0,1,15.782,12.264,42.53,42.53,0,0,1,8.991,16.975A46.586,46.586,0,0,1,443,178.238a48.483,48.483,0,0,1-7.694,18.911,72.292,72.292,0,0,1-12.841,13.967,127.936,127.936,0,0,1-15.358,11q-8.069,4.924-15.154,9.962a69.65,69.65,0,0,0-12.262,10.99,29.493,29.493,0,0,0-6.739,13.993,44.957,44.957,0,0,0-.78,12.758,90.586,90.586,0,0,0,1.439,10.1ZM111.013,220.433a75.524,75.524,0,0,1-5.316-21.258,53.437,53.437,0,0,1,1.693-19.914,42.5,42.5,0,0,1,9.341-16.786,46.536,46.536,0,0,1,17.628-11.863,48.472,48.472,0,0,1,20.051-3.843,72.255,72.255,0,0,1,18.714,3.163,128.051,128.051,0,0,1,17.594,6.884q8.521,4.084,16.611,7.284a69.524,69.524,0,0,0,15.894,4.3,29.481,29.481,0,0,0,15.407-1.97,44.9,44.9,0,0,0,11.123-6.292,90.953,90.953,0,0,0,7.687-6.706l9.151,22.654A65.552,65.552,0,0,1,258,182.173a75.083,75.083,0,0,1-11.21,5.681,38.964,38.964,0,0,1-17.7,2.978,72.592,72.592,0,0,1-17.187-3.449,146.226,146.226,0,0,1-16.889-6.761q-8.4-3.971-16.543-6.9a72.722,72.722,0,0,0-16.131-3.874,31.82,31.82,0,0,0-15.874,2.238,28.48,28.48,0,0,0-10.91,7.437,27.225,27.225,0,0,0-5.848,10.629,33.6,33.6,0,0,0-1.069,12.543,47.073,47.073,0,0,0,3.3,13.233q9.609,23.781,35.371,33.666l-24.765,10Q120.339,243.508,111.013,220.433Zm186.976-59.008a16.5,16.5,0,0,1-8.868-21.95,15.555,15.555,0,0,1,9.1-9.076,15.875,15.875,0,0,1,12.851.209,16.856,16.856,0,0,1,8.869,21.949,15.865,15.865,0,0,1-9.1,9.076,16.663,16.663,0,0,1-6.277,1.285,15.542,15.542,0,0,1-6.582-1.5Z" transform="translate(-105.413 -119.084)" fill="#eed4d4"/>
</svg>
