<svg xmlns="http://www.w3.org/2000/svg" width="226.785" height="212.622" viewBox="0 0 226.785 212.622">
  <path id="Union_9" data-name="Union 9" d="M224.181,331.076a31.185,31.185,0,0,1-12.786-6.25,32.483,32.483,0,0,1-8.945-10.34,48.467,48.467,0,0,1-4.43-11.91,86.064,86.064,0,0,1-1.9-12.51q-.484-6.311-1.343-12.07a46.6,46.6,0,0,0-2.829-10.659,19.745,19.745,0,0,0-6.3-8.28,30.092,30.092,0,0,0-7.375-4.344,60.729,60.729,0,0,0-6.461-2.211l10.071-12.893a43.843,43.843,0,0,1,6.407,2.942,50.363,50.363,0,0,1,7.05,4.6,26.1,26.1,0,0,1,7.654,9.269,48.565,48.565,0,0,1,3.755,11.123A98.037,98.037,0,0,1,208.48,279.6q.508,6.2,1.534,11.9a48.68,48.68,0,0,0,3.155,10.653,21.313,21.313,0,0,0,6.612,8.456,19.054,19.054,0,0,0,7.965,3.836,18.225,18.225,0,0,0,8.124-.165,22.5,22.5,0,0,0,7.634-3.58,31.545,31.545,0,0,0,6.57-6.346q10.574-13.534,7.68-31.786l14.1,11.013q-1.885,18.259-12.147,31.392a50.535,50.535,0,0,1-10.548,10.2,35.762,35.762,0,0,1-12.118,5.687,28.166,28.166,0,0,1-6.826.841A29.352,29.352,0,0,1,224.181,331.076Zm45.694-64.153a11.228,11.228,0,0,1-7.161-4.7,10.619,10.619,0,0,1-1.779-8.421,10.411,10.411,0,0,1,4.8-7.142,11.046,11.046,0,0,1,15.563,3.025,10.406,10.406,0,0,1,1.779,8.421,10.617,10.617,0,0,1-4.8,7.141,11.1,11.1,0,0,1-8.4,1.675ZM144.808,236.565a10.621,10.621,0,0,1-4.183-7.523,11.291,11.291,0,0,1,9.761-12.494,10.634,10.634,0,0,1,8.312,2.238,10.416,10.416,0,0,1,4.182,7.523A11.045,11.045,0,0,1,153.12,238.8a11.22,11.22,0,0,1-1.727.136,10.472,10.472,0,0,1-6.583-2.374Zm124.154-12.886a43.759,43.759,0,0,1-.288-7.05,50.245,50.245,0,0,1,.9-8.366,26.078,26.078,0,0,1,4.783-11.027,48.528,48.528,0,0,1,8.205-8.393,98.007,98.007,0,0,1,9.959-7.021q5.295-3.267,9.909-6.769a48.765,48.765,0,0,0,8.056-7.648,21.3,21.3,0,0,0,4.532-9.735,19.067,19.067,0,0,0-.2-8.84,18.242,18.242,0,0,0-3.836-7.161,22.509,22.509,0,0,0-6.655-5.177,31.612,31.612,0,0,0-8.635-2.973q-16.859-3.276-31.809,7.587l3.413-17.558q17.12-6.611,33.484-3.43a50.554,50.554,0,0,1,13.875,4.769,35.793,35.793,0,0,1,10.569,8.213,28.482,28.482,0,0,1,6.021,11.368,31.2,31.2,0,0,1,.236,14.23,32.468,32.468,0,0,1-5.153,12.664,48.413,48.413,0,0,1-8.6,9.353,85.672,85.672,0,0,1-10.285,7.369q-5.4,3.3-10.148,6.672a46.645,46.645,0,0,0-8.212,7.36,19.751,19.751,0,0,0-4.513,9.371,30.106,30.106,0,0,0-.523,8.544,60.663,60.663,0,0,0,.964,6.762Zm-159.8-36.723a50.577,50.577,0,0,1-3.56-14.236,35.786,35.786,0,0,1,1.134-13.336,28.459,28.459,0,0,1,6.256-11.241A31.164,31.164,0,0,1,124.8,140.2a32.461,32.461,0,0,1,13.428-2.574,48.388,48.388,0,0,1,12.532,2.118,85.757,85.757,0,0,1,11.783,4.61q5.707,2.735,11.124,4.878a46.558,46.558,0,0,0,10.644,2.878,19.743,19.743,0,0,0,10.318-1.319,30.066,30.066,0,0,0,7.449-4.214,60.917,60.917,0,0,0,5.148-4.491l6.129,15.171a43.9,43.9,0,0,1-5.751,4.077,50.282,50.282,0,0,1-7.507,3.8,26.093,26.093,0,0,1-11.855,1.994,48.613,48.613,0,0,1-11.51-2.31,97.922,97.922,0,0,1-11.31-4.528q-5.623-2.66-11.078-4.623a48.7,48.7,0,0,0-10.8-2.594,21.309,21.309,0,0,0-10.631,1.5,19.073,19.073,0,0,0-7.306,4.98,18.232,18.232,0,0,0-3.916,7.118,22.5,22.5,0,0,0-.716,8.4,31.524,31.524,0,0,0,2.21,8.862q6.435,15.926,23.687,22.546l-16.585,6.7Q115.408,202.409,109.163,186.956Zm125.215-39.517a11.047,11.047,0,0,1-5.939-14.7,10.417,10.417,0,0,1,6.094-6.078,10.631,10.631,0,0,1,8.606.14,11.288,11.288,0,0,1,5.94,14.7,10.624,10.624,0,0,1-6.094,6.078,11.159,11.159,0,0,1-4.2.861,10.408,10.408,0,0,1-4.408-1.006Z" transform="translate(-105.413 -119.084)" fill="#db324d"/>
</svg>
